<?xml version="1.0" standalone="no"?>
<!DOCTYPE svg PUBLIC "-//W3C//DTD SVG 20010904//EN"
 "http://www.w3.org/TR/2001/REC-SVG-20010904/DTD/svg10.dtd">
<svg version="1.0" xmlns="http://www.w3.org/2000/svg"
 width="600.000000pt" height="600.000000pt" viewBox="0 0 600.000000 600.000000"
 preserveAspectRatio="xMidYMid meet">
<metadata>
Created by potrace 1.14, written by Peter Selinger 2001-2017
</metadata>
<g transform="translate(0.000000,600.000000) scale(0.100000,-0.100000)"
fill="#000000" stroke="none">
<path d="M0 5990 c0 -7 142 -10 405 -10 263 0 405 -3 405 -10 0 -5 11 -10 25
-10 14 0 25 5 25 10 0 6 138 10 395 10 l395 0 0 -55 c0 -30 5 -55 10 -55 16 0
13 -247 -2 -254 -10 -5 -10 -7 0 -12 15 -7 18 -474 2 -474 -5 0 -10 -20 -10
-45 0 -25 5 -45 10 -45 6 0 10 -20 10 -45 0 -25 -4 -45 -10 -45 -6 0 -10 -52
-10 -135 0 -83 4 -135 10 -135 7 0 10 -423 10 -1250 0 -827 -3 -1250 -10
-1250 -5 0 -10 5 -10 10 0 6 -11 10 -25 10 -14 0 -25 -4 -25 -10 0 -5 -16 -10
-35 -10 -19 0 -35 -4 -35 -10 0 -6 -32 -10 -75 -10 -43 0 -75 4 -75 10 0 6
-33 10 -80 10 -47 0 -80 -4 -80 -10 0 -6 -138 -10 -395 -10 -257 0 -395 4
-395 10 0 6 -55 10 -145 10 -90 0 -145 -4 -145 -10 0 -6 -30 -10 -70 -10 l-70
0 0 -80 0 -80 260 0 c167 0 260 -4 260 -10 0 -7 150 -10 430 -10 280 0 430 3
430 10 0 6 14 10 30 10 17 0 30 -4 30 -10 0 -5 7 -10 15 -10 8 0 15 5 15 10 0
6 9 10 20 10 11 0 20 -4 20 -10 0 -6 63 -10 170 -10 107 0 170 4 170 10 0 6
118 10 335 10 217 0 335 4 335 10 0 6 20 10 45 10 25 0 45 -4 45 -10 0 -6 117
-10 330 -10 213 0 330 4 330 10 0 7 152 10 436 10 393 0 437 -2 452 -17 12
-12 13 -18 4 -21 -14 -4 -16 -32 -2 -32 6 0 10 -70 10 -190 0 -120 -4 -190
-10 -190 -6 0 -10 -40 -10 -100 0 -60 4 -100 10 -100 6 0 10 -138 10 -395 0
-257 4 -395 10 -395 6 0 10 -100 10 -280 l0 -280 -225 0 c-143 0 -225 4 -225
10 0 6 -63 10 -170 10 -107 0 -170 -4 -170 -10 0 -5 -13 -10 -30 -10 -16 0
-30 5 -30 10 0 16 -297 13 -304 -2 -5 -10 -7 -10 -12 0 -7 15 -684 18 -684 2
0 -6 -88 -10 -245 -10 -157 0 -245 4 -245 10 0 6 -37 10 -90 10 -53 0 -90 -4
-90 -10 0 -6 -63 -10 -170 -10 -107 0 -170 -4 -170 -10 0 -7 593 -10 1760 -10
1753 0 1760 0 1760 20 0 11 5 20 10 20 6 0 10 -4 10 -10 0 -5 9 -10 20 -10 11
0 20 -4 20 -10 0 -7 188 -10 545 -10 l545 0 0 30 c0 28 -3 30 -35 30 -19 0
-35 -4 -35 -10 0 -6 -75 -10 -205 -10 -130 0 -205 4 -205 10 0 7 -195 10 -565
10 -496 0 -565 2 -565 15 0 10 11 15 35 15 19 0 35 5 35 10 0 6 7 10 15 10 8
0 15 5 15 10 0 6 -7 10 -15 10 -8 0 -15 5 -15 10 0 6 7 10 15 10 10 0 15 11
15 35 0 33 -2 35 -35 35 -19 0 -35 5 -35 10 0 6 20 10 45 10 33 0 45 4 45 15
0 8 5 15 10 15 6 0 10 -11 10 -25 0 -14 -4 -25 -10 -25 -5 0 -10 -4 -10 -10 0
-5 16 -10 35 -10 l35 0 0 55 c0 42 -3 55 -15 55 -8 0 -15 5 -15 10 0 6 11 10
25 10 28 0 32 14 11 36 -19 18 -43 18 -62 0 -16 -17 -19 -36 -4 -36 6 0 10 -9
10 -20 0 -13 -7 -20 -20 -20 -16 0 -20 7 -20 35 0 31 -3 35 -25 35 -14 0 -25
5 -25 10 0 6 16 10 35 10 19 0 35 3 35 6 0 15 -32 34 -59 34 -31 0 -31 0 -31
-55 0 -48 2 -55 20 -55 11 0 20 -4 20 -10 0 -5 -9 -10 -20 -10 -15 0 -20 -7
-20 -25 0 -20 -5 -25 -25 -25 -20 0 -25 5 -25 25 0 14 5 25 10 25 6 0 10 100
10 280 0 180 -4 280 -10 280 -7 0 -10 157 -10 450 0 293 -3 450 -10 450 -7 0
-10 168 -10 485 0 317 3 485 10 485 6 0 10 70 10 190 0 120 -4 190 -10 190 -5
0 -10 11 -10 25 0 14 5 25 10 25 6 0 10 52 10 135 l0 135 25 0 c18 0 25 5 25
20 0 14 -7 20 -21 20 -22 0 -49 22 -49 39 0 6 16 11 35 11 32 0 35 2 35 30 0
25 -4 30 -25 30 -16 0 -25 6 -25 15 0 9 9 15 25 15 18 0 25 5 25 20 0 15 -7
20 -25 20 -22 0 -25 4 -25 35 0 31 3 35 25 35 22 0 25 4 25 33 0 21 7 38 20
47 29 21 25 30 -15 30 -19 0 -35 5 -35 10 0 6 7 10 15 10 8 0 15 7 15 15 0 8
9 15 20 15 18 0 20 7 20 55 0 30 -4 55 -10 55 -5 0 -10 5 -10 10 0 6 63 10
170 10 154 0 196 -6 158 -24 -10 -5 -10 -7 0 -12 6 -3 12 -12 12 -20 0 -8 5
-14 10 -14 6 0 10 -20 10 -45 l0 -45 45 0 c41 0 45 2 45 24 0 13 -6 27 -12 29
-10 4 -9 8 2 17 11 9 12 13 2 17 -20 8 -14 33 8 33 16 0 20 7 20 30 l0 30 90
0 c53 0 90 -4 90 -10 0 -5 20 -10 45 -10 25 0 45 5 45 10 0 7 143 10 410 10
l410 0 0 80 0 80 -285 0 c-183 0 -285 4 -285 10 0 6 -16 10 -35 10 -19 0 -35
-4 -35 -10 0 -6 -88 -10 -245 -10 -157 0 -245 -4 -245 -10 0 -6 -120 -10 -340
-10 -220 0 -340 4 -340 10 0 16 -607 13 -614 -2 -5 -10 -7 -10 -12 0 -4 9 -52
12 -191 12 -146 0 -187 3 -199 14 -16 17 -19 36 -4 36 6 0 10 9 10 20 0 13 7
20 20 20 11 0 20 -4 20 -10 0 -5 7 -10 15 -10 11 0 15 12 15 45 0 41 -2 45
-24 45 -13 0 -27 -6 -30 -12 -5 -10 -7 -10 -12 0 -3 6 -17 12 -30 12 -22 0
-24 -4 -24 -55 0 -48 -2 -55 -20 -55 -11 0 -20 5 -20 10 0 6 5 10 10 10 6 0
10 16 10 35 0 35 0 35 -45 35 -25 0 -45 5 -45 10 0 6 -20 10 -45 10 l-45 0 0
-45 c0 -45 0 -45 35 -45 19 0 35 -4 35 -10 0 -5 9 -10 20 -10 15 0 20 -7 20
-25 0 -18 -5 -25 -20 -25 -11 0 -20 5 -20 10 0 6 -11 10 -25 10 -14 0 -25 -4
-25 -10 0 -5 -7 -10 -16 -10 -18 0 -44 23 -44 39 0 6 -7 11 -15 11 -9 0 -15
-9 -15 -25 0 -18 -5 -25 -20 -25 -11 0 -20 5 -20 10 0 6 -7 10 -15 10 -8 0
-15 -4 -15 -10 0 -5 -9 -10 -20 -10 -11 0 -20 5 -20 10 0 6 -11 10 -25 10 -14
0 -25 -4 -25 -10 0 -7 -148 -10 -425 -10 l-425 0 0 295 c0 190 -4 295 -10 295
-7 0 -10 175 -10 505 0 330 3 505 10 505 6 0 10 9 10 20 0 16 7 20 35 20 24 0
35 5 35 15 0 8 9 15 19 15 11 0 22 6 25 13 5 10 7 10 12 0 15 -32 54 2 54 46
0 17 -4 31 -10 31 -5 0 -10 5 -10 10 0 6 24 10 54 10 34 0 57 5 60 13 5 10 7
10 12 0 4 -9 29 -13 74 -13 45 0 70 4 73 13 4 9 8 8 17 -3 9 -11 13 -12 17 -2
6 14 93 17 93 2 0 -6 132 -10 375 -10 243 0 375 4 375 10 0 6 20 10 45 10 25
0 45 -4 45 -10 0 -6 32 -10 75 -10 43 0 75 4 75 10 0 7 420 10 1240 10 820 0
1240 -3 1240 -10 0 -5 -20 -10 -45 -10 -39 0 -45 -3 -45 -21 0 -39 59 -69 74
-36 5 10 7 10 12 0 3 -7 17 -13 30 -13 21 0 24 5 24 35 0 24 -5 35 -15 35 -8
0 -15 5 -15 10 0 6 16 10 35 10 19 0 35 -4 35 -10 0 -5 -4 -10 -10 -10 -15 0
-12 -39 4 -56 27 -26 36 -15 36 41 l0 55 -3000 0 c-1993 0 -3000 -3 -3000 -10z
m1980 -40 c0 -5 -20 -10 -45 -10 -25 0 -45 5 -45 10 0 6 20 10 45 10 25 0 45
-4 45 -10z m1090 -1690 c0 -5 -7 -10 -15 -10 -8 0 -15 5 -15 10 0 6 7 10 15
10 8 0 15 -4 15 -10z m360 -250 c0 -6 130 -10 370 -10 l370 0 0 -80 c0 -47 4
-80 10 -80 6 0 10 -137 10 -390 0 -253 -4 -390 -10 -390 -7 0 -10 -147 -10
-420 l0 -420 -25 0 c-14 0 -25 -4 -25 -10 0 -7 -235 -10 -685 -10 -450 0 -685
-3 -685 -10 0 -7 -150 -10 -430 -10 -280 0 -430 3 -430 10 0 6 -9 10 -20 10
-20 0 -20 7 -20 900 l0 900 325 0 c210 0 325 4 325 10 0 7 162 10 465 10 303
0 465 -3 465 -10z m940 -40 c0 -5 -4 -10 -10 -10 -5 0 -10 5 -10 10 0 6 5 10
10 10 6 0 10 -4 10 -10z m20 -201 c0 -11 -24 -39 -34 -39 -3 0 -6 11 -6 25 0
18 5 25 20 25 11 0 20 -5 20 -11z m30 -3604 c0 -42 -3 -55 -15 -55 -10 0 -15
11 -15 35 0 19 -4 35 -10 35 -5 0 -10 9 -10 20 0 15 7 20 25 20 24 0 25 -3 25
-55z"/>
<path d="M3920 2660 c0 -5 5 -10 10 -10 6 0 10 -16 10 -35 0 -24 5 -35 15 -35
8 0 15 -4 15 -10 0 -5 -7 -10 -15 -10 -10 0 -15 -11 -15 -35 0 -24 5 -35 15
-35 8 0 15 7 15 15 0 8 9 15 20 15 22 0 27 15 8 24 -10 5 -10 7 0 12 14 7 16
54 2 54 -5 0 -10 9 -10 20 0 11 5 20 10 20 6 0 10 5 10 10 0 6 -20 10 -45 10
-25 0 -45 -4 -45 -10z"/>
<path d="M3790 2515 c0 -14 5 -25 10 -25 6 0 10 -13 10 -30 0 -23 4 -30 20
-30 11 0 20 5 20 10 0 6 7 10 15 10 11 0 15 12 15 45 l0 45 -45 0 c-41 0 -45
-2 -45 -25z"/>
<path d="M3970 2480 c0 -5 -7 -10 -15 -10 -8 0 -15 -9 -15 -20 0 -24 34 -27
56 -6 21 21 17 46 -6 46 -11 0 -20 -4 -20 -10z"/>
<path d="M3790 2390 c0 -5 -7 -10 -15 -10 -8 0 -15 -4 -15 -10 0 -5 6 -10 14
-10 8 0 16 -6 18 -12 3 -9 9 -8 22 5 15 15 16 19 2 32 -17 17 -26 19 -26 5z"/>
<path d="M3933 2385 c-19 -21 -16 -25 22 -25 28 0 35 4 35 20 0 24 -38 27 -57
5z"/>
<path d="M3940 2315 c0 -16 6 -25 15 -25 9 0 15 9 15 25 0 16 -6 25 -15 25 -9
0 -15 -9 -15 -25z"/>
<path d="M2050 5909 c0 -30 19 -59 39 -59 6 0 11 9 11 20 0 11 5 20 10 20 6 0
10 -4 10 -10 0 -5 9 -10 20 -10 16 0 20 7 20 35 0 28 -4 35 -20 35 -11 0 -20
-7 -20 -15 0 -8 -4 -15 -10 -15 -5 0 -10 7 -10 15 0 9 -9 15 -25 15 -21 0 -25
-5 -25 -31z"/>
<path d="M2210 5925 c0 -8 -4 -15 -10 -15 -15 0 -12 -29 4 -46 29 -29 46 -17
46 31 0 38 -3 45 -20 45 -11 0 -20 -7 -20 -15z"/>
<path d="M2280 5915 c0 -28 23 -34 46 -11 22 23 17 36 -16 36 -25 0 -30 -4
-30 -25z"/>
<path d="M1500 5893 c-10 -12 -11 -18 -2 -21 7 -2 12 -19 12 -38 l0 -34 55 0
c55 0 55 0 55 30 0 62 -82 105 -120 63z"/>
<path d="M2890 5819 c0 -33 19 -59 44 -59 9 0 16 8 16 20 0 11 7 20 15 20 10
0 15 -11 15 -35 0 -28 4 -35 20 -35 17 0 20 7 20 45 0 25 -4 45 -10 45 -5 0
-10 7 -10 15 0 8 -4 15 -10 15 -5 0 -10 -7 -10 -15 0 -9 -9 -15 -25 -15 -16 0
-25 6 -25 15 0 8 -9 15 -20 15 -16 0 -20 -7 -20 -31z"/>
<path d="M3430 5825 c0 -16 -6 -25 -15 -25 -8 0 -15 5 -15 10 0 6 -4 10 -10
10 -5 0 -10 -13 -10 -30 0 -16 5 -30 10 -30 6 0 10 5 10 10 0 6 7 10 15 10 8
0 15 -4 15 -10 0 -5 9 -10 20 -10 17 0 20 7 20 45 0 38 -3 45 -20 45 -15 0
-20 -7 -20 -25z"/>
<path d="M3520 5835 c0 -8 -7 -15 -15 -15 -8 0 -15 -9 -15 -20 0 -14 7 -20 21
-20 25 0 60 31 41 38 -6 2 -12 10 -12 18 0 8 -4 14 -10 14 -5 0 -10 -7 -10
-15z"/>
<path d="M2030 5810 c0 -5 5 -10 10 -10 6 0 10 -16 10 -35 0 -31 3 -35 25 -35
22 0 25 4 25 35 0 31 -3 35 -25 35 -14 0 -25 5 -25 10 0 6 -4 10 -10 10 -5 0
-10 -4 -10 -10z"/>
<path d="M2403 5805 c-7 -8 -13 -26 -13 -40 0 -30 31 -68 38 -47 2 6 10 12 18
12 8 0 14 7 14 15 0 8 5 15 10 15 6 0 10 -7 10 -15 0 -8 9 -15 20 -15 15 0 20
7 20 25 0 21 -5 25 -30 25 -16 0 -30 5 -30 10 0 6 -7 10 -15 10 -8 0 -15 5
-15 10 0 14 -13 12 -27 -5z"/>
<path d="M3070 5790 c0 -23 4 -30 20 -30 16 0 20 7 20 30 0 23 -4 30 -20 30
-16 0 -20 -7 -20 -30z"/>
<path d="M3180 5804 c0 -22 25 -44 49 -44 14 0 21 6 21 20 0 11 -7 20 -15 20
-8 0 -15 5 -15 10 0 6 -9 10 -20 10 -12 0 -20 -7 -20 -16z"/>
<path d="M3310 5800 c0 -15 7 -20 25 -20 18 0 25 5 25 20 0 15 -7 20 -25 20
-18 0 -25 -5 -25 -20z"/>
<path d="M1960 5780 c0 -11 5 -20 10 -20 6 0 10 -7 10 -15 0 -8 7 -15 15 -15
8 0 15 6 15 14 0 8 6 16 12 18 19 7 -16 38 -41 38 -14 0 -21 -6 -21 -20z"/>
<path d="M2140 5769 c0 -27 19 -59 35 -59 8 0 35 27 35 35 0 10 -28 35 -39 35
-6 0 -11 5 -11 10 0 6 -4 10 -10 10 -5 0 -10 -14 -10 -31z"/>
<path d="M2230 5765 c0 -31 3 -35 25 -35 20 0 25 5 25 25 0 16 -6 25 -15 25
-8 0 -15 5 -15 10 0 6 -4 10 -10 10 -5 0 -10 -16 -10 -35z"/>
<path d="M2300 5765 c0 -28 4 -35 20 -35 24 0 27 34 6 56 -22 21 -26 18 -26
-21z"/>
<path d="M1510 5755 c0 -14 5 -25 10 -25 6 0 10 -20 10 -45 0 -33 4 -45 15
-45 8 0 15 -4 15 -10 0 -5 -7 -10 -15 -10 -8 0 -15 -9 -15 -20 0 -15 7 -20 25
-20 21 0 25 5 25 30 0 17 5 30 10 30 6 0 10 7 10 15 0 8 5 15 10 15 6 0 10 9
10 20 0 16 -7 20 -30 20 -16 0 -30 5 -30 10 0 6 9 10 20 10 15 0 20 7 20 25 0
23 -4 25 -45 25 -41 0 -45 -2 -45 -25z"/>
<path d="M2550 5770 c0 -5 5 -10 10 -10 6 0 10 -7 10 -15 0 -8 5 -15 10 -15 6
0 10 11 10 25 0 18 -5 25 -20 25 -11 0 -20 -4 -20 -10z"/>
<path d="M2190 5665 c0 -16 -6 -25 -15 -25 -8 0 -15 -4 -15 -10 0 -5 7 -10 15
-10 8 0 15 -4 15 -10 0 -14 37 -12 44 3 5 10 7 10 12 0 3 -7 12 -13 20 -13 10
0 14 13 14 45 0 33 -4 45 -15 45 -8 0 -15 -4 -15 -10 0 -5 -9 -10 -20 -10 -11
0 -20 5 -20 10 0 6 -4 10 -10 10 -5 0 -10 -11 -10 -25z"/>
<path d="M2300 5655 c0 -39 4 -42 26 -21 21 22 18 56 -6 56 -16 0 -20 -7 -20
-35z"/>
<path d="M1530 5530 c0 -15 7 -20 25 -20 18 0 25 5 25 20 0 15 -7 20 -25 20
-18 0 -25 -5 -25 -20z"/>
<path d="M1530 5450 c0 -5 7 -10 15 -10 8 0 15 5 15 10 0 6 -7 10 -15 10 -8 0
-15 -4 -15 -10z"/>
<path d="M1530 5350 c0 -15 7 -20 25 -20 18 0 25 5 25 20 0 15 -7 20 -25 20
-18 0 -25 -5 -25 -20z"/>
<path d="M1530 5240 c0 -15 7 -20 25 -20 18 0 25 5 25 20 0 15 -7 20 -25 20
-18 0 -25 -5 -25 -20z"/>
<path d="M1530 5150 c0 -15 7 -20 25 -20 18 0 25 5 25 20 0 15 -7 20 -25 20
-18 0 -25 -5 -25 -20z"/>
<path d="M5390 4565 c0 -18 5 -25 20 -25 11 0 20 5 20 10 0 6 -4 10 -10 10 -5
0 -10 7 -10 15 0 8 -4 15 -10 15 -5 0 -10 -11 -10 -25z"/>
<path d="M5070 4530 c0 -25 4 -30 25 -30 21 0 25 5 25 30 0 25 -4 30 -25 30
-21 0 -25 -5 -25 -30z"/>
<path d="M5152 4544 c-11 -12 -11 -17 2 -29 21 -22 26 -19 26 15 0 33 -8 37
-28 14z"/>
<path d="M5210 4530 c0 -23 4 -30 20 -30 16 0 20 7 20 30 0 23 -4 30 -20 30
-16 0 -20 -7 -20 -30z"/>
<path d="M5300 4540 c0 -13 7 -20 20 -20 13 0 20 7 20 20 0 13 -7 20 -20 20
-13 0 -20 -7 -20 -20z"/>
<path d="M5340 4485 c0 -8 -4 -15 -10 -15 -16 0 -12 -30 7 -48 12 -12 18 -13
21 -4 4 14 32 16 32 2 0 -15 29 -12 46 5 14 13 14 17 0 30 -8 8 -28 15 -45 15
-21 0 -31 5 -31 15 0 8 -4 15 -10 15 -5 0 -10 -7 -10 -15z"/>
<path d="M5480 4440 c0 -16 5 -30 10 -30 6 0 10 -7 10 -15 0 -8 5 -15 10 -15
6 0 10 7 10 15 0 8 5 15 10 15 15 0 12 29 -4 46 -25 24 -46 17 -46 -16z"/>
<path d="M5570 4454 c0 -8 7 -22 15 -31 14 -14 18 -13 34 6 23 26 41 27 41 1
0 -11 3 -20 6 -20 11 0 34 29 34 44 0 20 -65 23 -74 4 -5 -10 -7 -10 -12 0 -8
18 -44 15 -44 -4z"/>
<path d="M5750 4450 c0 -13 7 -20 20 -20 13 0 20 7 20 20 0 13 -7 20 -20 20
-13 0 -20 -7 -20 -20z"/>
<path d="M3283 4325 c-16 -17 -17 -35 -3 -35 6 0 10 -9 10 -20 0 -15 7 -20 25
-20 22 0 25 4 25 35 0 24 -5 35 -15 35 -8 0 -15 5 -15 10 0 14 -13 12 -27 -5z"/>
<path d="M2790 4285 c0 -31 3 -35 25 -35 22 0 25 4 25 35 0 31 -3 35 -25 35
-22 0 -25 -4 -25 -35z"/>
<path d="M3250 4240 c0 -5 -7 -10 -15 -10 -8 0 -15 -7 -15 -15 0 -10 11 -15
35 -15 37 0 44 12 21 36 -17 16 -26 18 -26 4z"/>
<path d="M4690 3820 c0 -11 5 -20 10 -20 6 0 10 -16 10 -35 0 -31 3 -35 25
-35 22 0 25 4 25 35 0 19 5 35 10 35 6 0 10 9 10 20 0 17 -7 20 -45 20 -38 0
-45 -3 -45 -20z"/>
<path d="M4800 3776 c0 -13 6 -27 13 -29 9 -4 9 -8 -2 -15 -12 -9 -12 -13 2
-26 8 -9 25 -16 36 -16 17 0 21 6 21 30 0 17 5 30 10 30 6 0 10 11 10 25 0 23
-4 25 -45 25 -41 0 -45 -2 -45 -24z"/>
<path d="M4703 3695 c-17 -18 -16 -23 4 -43 12 -12 18 -13 21 -4 2 6 10 12 18
12 8 0 14 10 14 25 0 19 -5 25 -22 25 -13 -1 -29 -7 -35 -15z"/>
<path d="M1150 3035 c0 -22 4 -25 35 -25 31 0 35 3 35 25 0 22 -4 25 -35 25
-31 0 -35 -3 -35 -25z"/>
<path d="M1150 2965 c0 -22 4 -25 35 -25 31 0 35 3 35 25 0 22 -4 25 -35 25
-31 0 -35 -3 -35 -25z"/>
<path d="M1150 2855 c0 -22 4 -25 35 -25 31 0 35 3 35 25 0 22 -4 25 -35 25
-31 0 -35 -3 -35 -25z"/>
<path d="M1260 2795 c0 -24 5 -35 15 -35 8 0 15 -4 15 -10 0 -5 -7 -10 -15
-10 -8 0 -15 -9 -15 -20 0 -16 7 -20 35 -20 32 0 35 2 35 30 0 17 -4 30 -10
30 -5 0 -10 7 -10 15 0 8 5 15 10 15 6 0 10 9 10 20 0 16 -7 20 -35 20 -33 0
-35 -2 -35 -35z"/>
<path d="M1163 2795 c-20 -23 -16 -55 7 -55 11 0 20 5 20 10 0 6 11 10 25 10
28 0 32 14 11 36 -18 18 -47 17 -63 -1z"/>
<path d="M1150 2685 c0 -8 9 -15 20 -15 11 0 20 7 20 15 0 8 -9 15 -20 15 -11
0 -20 -7 -20 -15z"/>
<path d="M1150 2630 c0 -16 7 -20 35 -20 19 0 35 5 35 10 0 6 -7 10 -15 10 -8
0 -15 5 -15 10 0 6 -9 10 -20 10 -13 0 -20 -7 -20 -20z"/>
<path d="M1260 2620 c0 -5 16 -10 35 -10 19 0 35 5 35 10 0 6 -16 10 -35 10
-19 0 -35 -4 -35 -10z"/>
<path d="M1290 2440 c0 -5 -7 -10 -15 -10 -8 0 -15 -7 -15 -15 0 -10 11 -15
35 -15 37 0 44 12 21 36 -17 16 -26 18 -26 4z"/>
<path d="M1290 2335 c0 -14 5 -25 10 -25 6 0 10 7 10 15 0 8 5 15 10 15 6 0
10 5 10 10 0 6 -9 10 -20 10 -15 0 -20 -7 -20 -25z"/>
<path d="M0 1935 c0 -25 5 -45 10 -45 6 0 10 20 10 45 0 25 -4 45 -10 45 -5 0
-10 -20 -10 -45z"/>
<path d="M1510 1899 c0 -30 19 -59 39 -59 6 0 11 5 11 10 0 6 9 10 20 10 11 0
20 -4 20 -10 0 -5 11 -10 25 -10 22 0 25 4 25 35 0 24 -5 35 -15 35 -8 0 -15
5 -15 10 0 6 -4 10 -10 10 -5 0 -10 -9 -10 -20 0 -11 -4 -20 -10 -20 -5 0 -10
9 -10 20 0 16 -7 20 -35 20 -32 0 -35 -2 -35 -31z"/>
<path d="M1380 1900 c0 -5 -7 -10 -15 -10 -10 0 -15 -11 -15 -35 0 -24 5 -35
15 -35 11 0 15 -12 15 -45 0 -43 1 -45 30 -45 23 0 30 4 30 20 0 11 -4 20 -10
20 -5 0 -10 11 -10 25 0 22 4 25 35 25 35 0 35 0 35 45 0 45 0 45 -34 45 -19
0 -37 -6 -40 -12 -5 -10 -7 -10 -12 0 -7 14 -24 16 -24 2z"/>
<path d="M1670 1885 c0 -18 5 -25 20 -25 15 0 20 7 20 25 0 18 -5 25 -20 25
-15 0 -20 -7 -20 -25z"/>
<path d="M1740 1885 c0 -18 5 -25 20 -25 15 0 20 7 20 25 0 18 -5 25 -20 25
-15 0 -20 -7 -20 -25z"/>
<path d="M1920 1875 c0 -28 4 -35 20 -35 16 0 20 7 20 35 0 28 -4 35 -20 35
-16 0 -20 -7 -20 -35z"/>
<path d="M1980 1885 c0 -16 6 -25 15 -25 9 0 15 9 15 25 0 16 -6 25 -15 25 -9
0 -15 -9 -15 -25z"/>
<path d="M1130 1785 c0 -8 -7 -15 -15 -15 -8 0 -15 -4 -15 -10 0 -5 7 -10 15
-10 8 0 15 -4 15 -10 0 -14 37 -12 44 3 5 10 7 10 12 0 3 -7 17 -13 30 -13 17
0 24 6 24 20 0 11 -4 20 -10 20 -5 0 -10 7 -10 15 0 8 -7 15 -15 15 -8 0 -15
-7 -15 -15 0 -8 -9 -15 -20 -15 -11 0 -20 7 -20 15 0 8 -4 15 -10 15 -5 0 -10
-7 -10 -15z"/>
<path d="M1710 1785 c0 -8 -4 -15 -10 -15 -5 0 -10 -4 -10 -10 0 -5 11 -10 25
-10 20 0 25 5 25 25 0 16 -6 25 -15 25 -8 0 -15 -7 -15 -15z"/>
<path d="M1780 1786 c0 -8 -6 -16 -12 -18 -9 -3 -8 -9 4 -21 24 -24 28 -21 28
18 0 19 -4 35 -10 35 -5 0 -10 -6 -10 -14z"/>
<path d="M1850 1775 c0 -18 5 -25 20 -25 11 0 20 5 20 10 0 6 -4 10 -10 10 -5
0 -10 7 -10 15 0 8 -4 15 -10 15 -5 0 -10 -11 -10 -25z"/>
<path d="M1940 1775 c0 -14 5 -25 10 -25 6 0 10 11 10 25 0 14 -4 25 -10 25
-5 0 -10 -11 -10 -25z"/>
<path d="M2120 1775 c0 -18 5 -25 20 -25 15 0 20 7 20 25 0 18 -5 25 -20 25
-15 0 -20 -7 -20 -25z"/>
<path d="M2230 1775 c0 -20 5 -25 25 -25 14 0 25 5 25 10 0 6 -7 10 -15 10 -8
0 -15 7 -15 15 0 8 -4 15 -10 15 -5 0 -10 -11 -10 -25z"/>
<path d="M1260 1760 c0 -5 7 -10 15 -10 8 0 15 -4 15 -10 0 -5 9 -10 20 -10
13 0 20 7 20 20 0 16 -7 20 -35 20 -19 0 -35 -4 -35 -10z"/>
<path d="M4440 580 c0 -16 7 -20 35 -20 28 0 35 4 35 20 0 16 -7 20 -35 20
-28 0 -35 -4 -35 -20z"/>
<path d="M4420 480 c0 -28 3 -30 35 -30 32 0 35 2 35 30 0 28 -3 30 -35 30
-32 0 -35 -2 -35 -30z"/>
<path d="M3713 295 c-7 -8 -13 -23 -13 -35 0 -16 6 -20 30 -20 24 0 30 4 30
21 0 11 -6 27 -14 35 -17 17 -18 17 -33 -1z"/>
<path d="M3803 295 c-7 -8 -13 -23 -13 -35 0 -16 6 -20 30 -20 24 0 30 4 30
21 0 11 -6 27 -14 35 -17 17 -18 17 -33 -1z"/>
<path d="M360 245 l0 -45 55 0 c55 0 55 0 55 31 0 38 -27 69 -42 48 -7 -11
-11 -11 -15 -1 -2 6 -16 12 -29 12 -22 0 -24 -4 -24 -45z"/>
<path d="M520 245 c0 -38 3 -45 20 -45 11 0 20 5 20 10 0 6 7 10 15 10 8 0 15
-4 15 -10 0 -5 9 -10 20 -10 16 0 20 7 20 35 0 33 -2 35 -35 35 -19 0 -35 5
-35 10 0 6 -9 10 -20 10 -17 0 -20 -7 -20 -45z"/>
<path d="M3520 269 c0 -19 21 -49 34 -49 3 0 6 16 6 35 0 28 -4 35 -20 35 -14
0 -20 -7 -20 -21z"/>
<path d="M3623 275 c-17 -19 -16 -43 2 -61 13 -14 17 -14 30 0 19 18 19 43 1
62 -17 17 -18 17 -33 -1z"/>
<path d="M3880 265 c0 -18 5 -25 20 -25 15 0 20 7 20 25 0 18 -5 25 -20 25
-15 0 -20 -7 -20 -25z"/>
<path d="M650 245 c0 -20 5 -25 25 -25 20 0 25 5 25 25 0 20 -5 25 -25 25 -20
0 -25 -5 -25 -25z"/>
<path d="M740 210 c0 -28 3 -30 35 -30 19 0 35 5 35 10 0 6 -4 10 -10 10 -5 0
-10 9 -10 20 0 15 -7 20 -25 20 -21 0 -25 -5 -25 -30z"/>
<path d="M20 175 c0 -14 -4 -25 -10 -25 -5 0 -10 -13 -10 -30 0 -25 4 -30 25
-30 16 0 25 -6 25 -15 0 -8 5 -15 10 -15 16 0 12 109 -4 126 -22 21 -36 17
-36 -11z"/>
<path d="M3130 120 c0 -47 3 -60 15 -60 8 0 15 7 15 15 0 8 5 15 10 15 6 0 10
20 10 45 0 41 -2 45 -25 45 -24 0 -25 -3 -25 -60z"/>
<path d="M3220 145 c0 -31 3 -35 25 -35 18 0 25 5 25 20 0 11 -4 20 -10 20 -5
0 -10 7 -10 15 0 8 -7 15 -15 15 -10 0 -15 -11 -15 -35z"/>
<path d="M3290 120 c0 -57 1 -60 25 -60 22 0 25 4 25 34 0 19 6 37 13 40 10 5
10 7 0 12 -7 3 -13 12 -13 20 0 8 -10 14 -25 14 -24 0 -25 -3 -25 -60z"/>
<path d="M4030 145 c0 -24 5 -35 15 -35 8 0 15 -4 15 -10 0 -5 5 -10 10 -10 6
0 10 14 10 30 0 17 -4 30 -10 30 -5 0 -10 7 -10 15 0 8 -7 15 -15 15 -10 0
-15 -11 -15 -35z"/>
<path d="M90 105 c0 -45 0 -45 35 -45 32 0 35 2 35 31 0 35 -20 59 -49 59 -18
0 -21 -6 -21 -45z"/>
<path d="M180 120 c0 -25 4 -30 25 -30 21 0 25 5 25 30 0 25 -4 30 -25 30 -21
0 -25 -5 -25 -30z"/>
<path d="M270 105 c0 -41 2 -45 25 -45 23 0 25 4 25 45 0 41 -2 45 -25 45 -23
0 -25 -4 -25 -45z"/>
<path d="M340 120 c0 -23 4 -30 20 -30 11 0 20 5 20 10 0 14 48 12 52 -2 3 -9
9 -8 22 5 15 15 16 19 2 32 -17 17 -46 20 -46 5 0 -5 -7 -10 -15 -10 -8 0 -15
5 -15 10 0 6 -9 10 -20 10 -16 0 -20 -7 -20 -30z"/>
<path d="M2790 120 c0 -25 4 -30 25 -30 28 0 34 23 11 46 -23 22 -36 17 -36
-16z"/>
<path d="M2890 140 c0 -5 -7 -10 -15 -10 -10 0 -15 -11 -15 -35 0 -24 5 -35
15 -35 8 0 15 7 15 15 0 12 13 15 55 15 58 0 72 15 41 46 -17 16 -36 19 -36 4
0 -5 -9 -10 -20 -10 -11 0 -20 5 -20 10 0 6 -4 10 -10 10 -5 0 -10 -4 -10 -10z"/>
<path d="M3033 135 c-15 -17 -17 -45 -3 -45 6 0 10 -7 10 -15 0 -8 7 -15 15
-15 8 0 15 7 15 15 0 8 5 15 10 15 6 0 10 14 10 30 0 25 -4 30 -22 30 -13 -1
-29 -7 -35 -15z"/>
<path d="M3393 135 c-15 -17 -17 -45 -3 -45 6 0 10 -7 10 -15 0 -9 9 -15 25
-15 16 0 25 6 25 15 0 8 5 15 10 15 6 0 10 -7 10 -15 0 -9 9 -15 25 -15 20 0
25 5 25 25 0 18 5 25 20 25 24 0 25 6 3 28 -12 12 -18 13 -21 4 -4 -14 -72
-17 -72 -2 0 15 -43 11 -57 -5z"/>
<path d="M3610 130 c0 -11 -7 -20 -15 -20 -8 0 -15 -4 -15 -10 0 -5 7 -10 15
-10 8 0 15 -7 15 -15 0 -12 13 -15 55 -15 l55 0 0 35 c0 19 5 35 10 35 6 0 10
-16 10 -35 0 -31 3 -35 25 -35 22 0 25 4 25 35 0 31 -3 35 -25 35 -14 0 -25 5
-25 10 0 6 -16 10 -35 10 -19 0 -35 -4 -35 -10 0 -5 -9 -10 -20 -10 -11 0 -20
5 -20 10 0 6 -4 10 -10 10 -5 0 -10 -9 -10 -20z"/>
<path d="M3823 135 c-7 -8 -13 -26 -13 -40 0 -30 31 -68 38 -47 2 6 10 12 18
12 10 0 14 13 14 45 0 40 -2 45 -22 45 -13 -1 -29 -7 -35 -15z"/>
<path d="M3900 105 c0 -38 3 -45 20 -45 11 0 20 7 20 15 0 10 11 15 35 15 32
0 35 2 35 30 0 23 -4 30 -20 30 -11 0 -20 -4 -20 -10 0 -5 -7 -10 -15 -10 -8
0 -15 5 -15 10 0 6 -9 10 -20 10 -17 0 -20 -7 -20 -45z"/>
<path d="M4510 130 c0 -13 7 -20 20 -20 13 0 20 7 20 20 0 13 -7 20 -20 20
-13 0 -20 -7 -20 -20z"/>
<path d="M0 20 c0 -20 7 -20 520 -20 340 0 520 3 520 10 0 7 -177 10 -510 10
-333 0 -510 3 -510 10 0 6 -4 10 -10 10 -5 0 -10 -9 -10 -20z"/>
</g>
</svg>
