<?xml version="1.0" standalone="no"?>
<!DOCTYPE svg PUBLIC "-//W3C//DTD SVG 20010904//EN"
 "http://www.w3.org/TR/2001/REC-SVG-20010904/DTD/svg10.dtd">
<svg version="1.0" xmlns="http://www.w3.org/2000/svg"
 width="300.000000pt" height="300.000000pt" viewBox="0 0 300.000000 300.000000"
 preserveAspectRatio="xMidYMid meet">
<metadata>
Created by potrace 1.10, written by Peter Selinger 2001-2011
</metadata>
<g transform="translate(0.000000,300.000000) scale(0.100000,-0.100000)"
fill="#000000" stroke="none">
<path d="M2199 2923 c-68 -70 -144 -169 -205 -269 -33 -54 -33 -54 -124 -38
-70 13 -94 13 -138 3 -51 -12 -53 -13 -34 -28 10 -9 22 -24 26 -35 5 -16 3
-18 -21 -12 -16 3 -102 13 -193 22 -123 13 -178 14 -215 6 -39 -8 -58 -7 -85
5 -40 16 -98 10 -107 -13 -3 -8 -33 -29 -66 -46 -33 -16 -66 -35 -73 -42 -6
-7 -42 -28 -79 -47 -37 -19 -102 -62 -146 -96 -51 -41 -84 -60 -94 -57 -9 4
-14 13 -11 20 3 8 0 11 -8 8 -8 -3 -17 0 -22 7 -5 8 -3 10 6 4 9 -5 11 -4 6 4
-4 6 -12 9 -17 6 -5 -4 -12 2 -16 12 -12 31 -46 53 -62 40 -12 -10 -14 -9 -8
5 3 10 3 17 -1 15 -4 -1 -18 8 -32 21 -14 13 -32 29 -40 35 -8 7 -40 34 -71
60 -31 26 -61 47 -68 47 -6 0 -11 5 -11 10 0 6 -7 10 -15 10 -8 0 -15 5 -15
10 0 6 -6 10 -14 10 -8 0 -18 5 -22 12 -5 7 -2 8 7 3 8 -5 11 -4 6 1 -5 5 -16
9 -25 9 -9 0 -16 6 -14 13 1 6 -1 11 -5 10 -17 -4 -53 14 -47 24 4 7 2 8 -5 4
-6 -4 -14 0 -17 8 -3 9 -10 16 -15 16 -5 0 -27 11 -49 25 -22 14 -40 22 -40
18 0 -5 -5 -1 -10 7 -8 12 -10 11 -10 -7 0 -12 9 -27 19 -33 11 -5 25 -16 33
-22 7 -7 30 -22 50 -33 21 -11 38 -23 38 -26 0 -4 15 -14 33 -23 50 -26 66
-37 157 -109 188 -150 216 -173 247 -206 18 -19 36 -32 40 -28 3 4 14 0 23 -8
15 -14 21 -13 56 11 36 24 35 22 -16 -30 -58 -59 -81 -72 -54 -32 12 19 13 29
5 43 -10 17 -10 17 -11 -2 0 -11 -14 -40 -30 -64 -17 -25 -29 -49 -27 -55 2
-6 -13 -37 -35 -68 -21 -31 -38 -61 -38 -65 0 -4 5 -1 11 7 7 10 9 11 7 2 -2
-8 -7 -13 -12 -12 -19 4 -100 -144 -92 -167 4 -9 2 -11 -5 -7 -7 4 -10 1 -7
-7 3 -8 -1 -20 -9 -27 -7 -7 -13 -25 -14 -40 0 -25 -16 -73 -19 -62 -6 20 -5
48 2 44 5 -3 6 6 2 20 -4 17 -1 31 10 41 15 16 20 35 17 63 -1 6 3 12 9 12 15
0 12 49 -4 66 -8 8 -23 14 -33 14 -20 0 -63 -34 -63 -50 0 -14 -140 68 -162
95 -11 14 -25 31 -32 38 -7 6 -19 33 -26 59 -8 26 -17 45 -21 43 -3 -3 -4 8
-2 23 4 22 2 24 -7 12 -9 -13 -10 -12 -8 5 1 11 -1 26 -5 33 -5 7 -12 49 -17
95 -8 75 -8 72 -4 -36 4 -103 9 -126 33 -176 15 -31 38 -71 52 -90 32 -43 139
-131 160 -131 10 0 21 -13 27 -29 9 -24 7 -32 -9 -47 -10 -9 -19 -23 -19 -31
0 -8 -5 -19 -10 -26 -6 -7 -33 -41 -61 -77 -27 -36 -61 -77 -74 -92 -32 -36
-39 -67 -32 -142 6 -67 60 -243 81 -264 11 -11 18 -9 42 11 l29 25 1 -152 c1
-88 8 -191 18 -246 21 -124 20 -174 -4 -252 -40 -129 -106 -251 -212 -389 -16
-21 -28 -49 -28 -65 0 -28 1 -28 13 -7 15 26 56 84 119 166 26 34 48 68 48 75
0 6 5 12 10 12 16 0 82 150 77 172 -4 12 0 18 11 18 14 0 14 2 3 9 -9 6 -10
11 -2 15 13 9 12 16 16 -74 3 -78 25 -197 46 -260 23 -66 132 -210 159 -210 6
0 -10 26 -35 57 -82 100 -92 129 -155 456 -6 31 -16 55 -21 52 -5 -4 -9 1 -9
9 0 9 4 16 9 16 5 0 11 8 13 18 3 9 8 -2 12 -25 4 -24 12 -45 17 -49 5 -3 9
-15 9 -27 0 -28 33 -100 61 -135 l22 -27 -6 24 c-3 14 -2 30 2 35 5 6 14 49
20 96 30 209 39 277 40 308 1 18 8 52 16 75 17 48 20 81 6 59 -6 -10 -10 -7
-15 12 -8 33 4 132 14 116 5 -7 11 11 15 41 8 58 10 68 25 144 5 28 12 71 15
96 2 25 16 85 30 132 14 48 24 90 23 95 -7 27 60 222 79 229 7 3 13 9 13 15 0
5 -4 6 -10 3 -26 -16 3 56 38 94 12 13 22 30 22 37 0 8 10 15 23 15 16 1 18 2
5 6 -23 6 -23 2 13 81 36 77 78 140 131 197 44 47 51 70 11 34 -48 -42 -63
-58 -63 -68 0 -5 -12 -22 -27 -39 -26 -28 -41 -52 -121 -211 -19 -36 -38 -67
-43 -69 -5 -2 -9 -8 -9 -14 0 -23 -43 -127 -51 -123 -4 3 -10 -4 -14 -15 -4
-11 -11 -18 -16 -15 -5 4 -9 -3 -9 -14 0 -12 -4 -21 -9 -21 -5 0 -11 -9 -14
-19 -8 -34 19 -13 39 29 20 42 28 48 40 28 4 -7 3 -8 -4 -4 -7 4 -12 1 -12 -9
0 -9 -7 -29 -15 -43 -8 -15 -37 -133 -64 -262 -58 -271 -58 -275 -71 -395 -5
-49 -17 -144 -25 -210 -9 -66 -17 -140 -19 -165 -2 -25 -7 -89 -11 -142 -8
-92 -9 -96 -22 -71 -7 15 -11 33 -8 40 3 9 0 11 -7 7 -8 -5 -9 -2 -5 10 5 11
3 15 -5 10 -8 -5 -9 -2 -5 10 4 9 3 15 -2 12 -14 -9 -65 145 -77 234 -6 45 -9
51 -15 30 -6 -21 -7 -19 -8 15 -1 22 -4 115 -7 206 -7 183 2 259 57 482 53
211 171 462 286 604 19 24 32 47 29 51 -13 22 287 272 366 305 21 9 55 32 75
52 32 31 39 34 42 19 2 -10 -2 -20 -8 -22 -6 -2 -11 -15 -11 -28 0 -14 4 -23
9 -20 5 3 12 -19 16 -50 9 -76 39 -163 87 -259 48 -95 63 -117 71 -109 4 4 10
-2 14 -12 9 -24 130 -144 137 -137 3 4 6 -1 6 -10 0 -10 4 -17 9 -17 5 0 13
-9 16 -21 5 -16 9 -18 21 -8 12 10 17 9 27 -1 10 -10 8 -12 -8 -6 -13 5 -17 4
-10 -3 6 -5 26 -13 45 -18 27 -7 36 -15 38 -34 2 -20 1 -21 -8 -9 -10 12 -11
10 -6 -10 3 -14 6 -33 6 -43 0 -10 4 -16 8 -13 4 2 6 -11 4 -31 -3 -23 -1 -33
6 -29 6 3 12 -13 16 -42 8 -52 32 -137 47 -164 6 -12 6 -18 -2 -18 -5 0 -7 -5
-4 -10 4 -6 12 -7 18 -4 9 5 9 4 1 -6 -7 -7 -21 -9 -34 -5 -18 6 -20 9 -9 16
9 6 2 7 -18 3 -55 -11 -225 49 -277 97 -11 11 -31 22 -43 25 -13 4 -23 10 -23
14 0 13 -127 140 -134 133 -3 -3 -6 1 -6 11 0 10 -5 14 -11 10 -8 -5 -10 4 -7
30 5 41 1 46 -11 14 -7 -20 -10 -17 -26 25 -9 25 -15 60 -13 77 3 19 1 29 -6
27 -6 -2 -10 -18 -8 -35 2 -18 -1 -32 -7 -32 -17 0 16 -78 56 -133 36 -49 163
-181 163 -169 0 3 8 -2 18 -10 15 -14 75 -43 197 -97 41 -18 143 -41 184 -41
39 0 49 18 35 64 -40 130 -63 247 -64 323 0 25 4 31 15 27 8 -4 15 -12 15 -19
0 -7 15 -16 33 -20 17 -4 64 -21 102 -39 39 -19 81 -37 94 -41 24 -7 24 -8 6
-21 -10 -8 -14 -14 -9 -14 6 0 15 5 21 11 8 8 20 7 44 -5 18 -9 40 -14 50 -11
9 3 20 1 24 -5 3 -5 21 -10 38 -10 22 0 28 -3 18 -9 -11 -7 -10 -10 5 -14 10
-2 -46 -4 -126 -3 -80 1 -134 0 -120 -3 17 -3 4 -8 -40 -15 -60 -10 -65 -13
-65 -36 0 -15 -5 -24 -12 -23 -7 2 -13 -6 -13 -17 0 -16 7 -20 35 -20 32 0 35
2 29 24 -4 18 -1 27 15 36 12 6 21 9 21 6 0 -2 21 2 47 10 25 8 57 14 70 14
26 0 32 -18 8 -25 -8 -3 -22 -7 -31 -10 -36 -12 2 -20 91 -20 106 0 120 -7
155 -81 24 -49 15 -86 -19 -77 -49 13 -109 -56 -84 -96 12 -19 100 -28 116
-12 8 8 -7 11 -51 11 -52 0 -62 3 -62 18 0 23 10 37 37 51 23 12 81 15 107 5
18 -7 22 -50 5 -56 -6 -2 -13 -26 -16 -53 -3 -28 -12 -66 -21 -85 -8 -19 -16
-39 -16 -45 -1 -5 -24 -26 -51 -47 -56 -42 -112 -50 -164 -24 -33 18 -94 84
-87 95 3 4 -4 32 -15 62 -25 66 -35 199 -20 255 11 40 50 72 72 59 5 -4 9 -1
9 4 0 6 -5 11 -11 11 -5 0 -7 5 -4 10 9 14 1 13 -39 -7 -52 -24 -71 -86 -63
-212 3 -54 10 -97 16 -99 6 -2 11 -12 11 -23 0 -26 32 -88 67 -129 32 -39 69
-56 143 -65 l55 -7 53 50 c28 27 52 54 52 61 0 6 5 11 11 11 5 0 17 16 25 35
16 40 20 241 4 265 -7 12 -10 8 -10 -15 -1 -25 -3 -22 -19 23 -10 29 -29 64
-41 77 -17 18 -19 25 -9 25 26 0 142 -165 154 -219 3 -17 11 -31 16 -31 5 0 9
-14 9 -31 0 -19 4 -28 11 -23 6 3 8 18 5 33 -15 62 -17 86 -7 71 9 -13 12 -13
23 -1 7 8 8 11 2 8 -6 -4 -17 5 -24 19 -8 13 -16 20 -20 14 -3 -6 -17 9 -30
32 -13 24 -42 70 -65 103 -49 69 -93 146 -74 128 7 -7 36 -13 65 -13 28 0 67
-6 85 -13 23 -9 80 -12 175 -11 142 1 199 8 190 23 -3 4 0 8 7 9 7 1 26 4 42
7 24 4 26 3 10 -4 -19 -9 -19 -10 2 -10 12 -1 28 6 36 14 22 21 30 5 10 -18
-10 -11 -13 -17 -7 -14 7 4 19 -5 29 -21 23 -35 122 -132 138 -133 6 -1 15 -1
19 0 5 0 7 -4 5 -10 -1 -6 17 -26 41 -46 33 -28 42 -32 42 -18 0 19 -65 80
-143 135 -28 19 -59 52 -70 73 l-19 37 33 30 c19 17 57 44 84 60 68 39 92 67
104 120 5 24 8 46 7 48 -2 1 -22 -13 -45 -32 -45 -38 -93 -50 -195 -51 l-59 0
-53 60 c-30 33 -54 66 -54 72 0 7 -3 12 -7 11 -5 -2 -19 5 -32 14 l-24 17 42
-1 c22 0 41 -3 41 -7 0 -17 252 -1 308 20 27 10 29 29 3 29 -10 0 -29 8 -42
18 -13 10 -41 27 -62 37 -21 11 -45 28 -54 38 -9 9 -22 17 -30 17 -7 0 -13 4
-13 9 0 5 -8 11 -17 15 -37 13 -116 76 -139 110 -14 20 -29 36 -34 36 -9 0 -9
3 8 80 15 67 40 279 48 415 9 140 9 123 -6 203 -9 42 -17 62 -27 62 -10 0 -13
-6 -8 -17 13 -35 16 -169 5 -268 -6 -55 -11 -129 -11 -164 0 -36 -4 -70 -10
-77 -6 -8 -11 -37 -10 -66 0 -67 -7 -91 -25 -84 -13 5 -12 2 1 -16 19 -28 19
-38 0 -38 -8 0 -15 7 -15 16 0 8 -5 12 -11 8 -6 -3 -27 9 -47 29 -44 42 -106
81 -164 104 -41 16 -51 24 -112 82 -14 14 -29 22 -32 18 -4 -4 -2 -7 4 -7 7 0
12 -4 12 -9 0 -4 -11 -6 -25 -3 -14 2 -25 8 -25 13 0 5 -6 9 -12 9 -7 0 -24 9
-37 19 -13 10 -31 17 -40 16 -9 -1 -11 0 -5 2 7 2 15 12 18 21 20 57 114 201
158 241 20 18 34 39 32 45 -3 7 3 19 13 27 16 13 17 12 4 -4 -15 -19 -12 -31
4 -19 6 4 35 33 65 65 l54 57 -30 0 c-24 0 -44 -15 -105 -77z m-434 -373 c0
-27 -2 -50 -5 -49 -3 0 -14 4 -25 9 -15 6 -16 9 -4 9 12 1 14 9 11 32 -3 20 0
34 9 40 8 5 14 9 14 9 0 0 0 -22 0 -50z m195 30 c0 -5 -8 -10 -17 -10 -15 0
-16 2 -3 10 19 12 20 12 20 0z m-76 -16 c43 -4 55 -9 45 -16 -10 -6 -3 -7 20
-3 23 5 31 4 27 -4 -5 -7 2 -11 18 -11 14 0 27 -4 31 -9 3 -5 20 -13 38 -17
30 -6 136 -60 147 -75 3 -3 46 -29 95 -56 50 -28 108 -67 129 -86 22 -20 44
-33 49 -30 6 3 7 1 3 -5 -7 -12 58 -82 77 -82 7 0 6 -4 -3 -10 -11 -7 -11 -10
-2 -10 7 0 10 -4 7 -10 -3 -6 5 -10 19 -10 15 0 34 -12 49 -30 14 -16 28 -30
31 -30 2 0 32 -18 66 -41 34 -22 80 -49 103 -59 58 -26 34 -33 -103 -28 -60 1
-110 0 -110 -3 0 -3 -12 -4 -26 -1 -20 3 -23 7 -12 14 9 7 8 9 -7 5 -11 -2
-26 2 -33 10 -7 7 -22 13 -33 13 -15 0 -19 5 -15 18 4 13 -5 22 -37 36 -23 11
-45 22 -50 24 -4 2 -4 -3 -1 -12 3 -9 10 -16 15 -16 12 0 59 -42 59 -52 0 -7
68 -102 116 -161 8 -9 14 -20 14 -23 0 -3 11 -16 25 -30 14 -14 25 -28 25 -31
0 -5 -64 0 -150 13 -19 3 -48 10 -63 16 -16 6 -48 12 -72 12 -24 1 -41 5 -37
10 3 5 -5 7 -16 4 -12 -4 -20 -3 -17 2 6 10 -42 23 -55 15 -6 -4 -10 -2 -10 3
0 5 -13 15 -30 22 -16 7 -30 16 -30 21 0 5 -7 9 -15 9 -8 0 -15 -4 -15 -10 0
-12 -71 37 -197 137 -50 40 -93 69 -95 64 -2 -4 -11 0 -21 9 -17 17 -16 17 29
9 25 -5 72 -11 103 -13 81 -7 167 -25 222 -47 39 -15 47 -16 42 -4 -10 28
-137 69 -243 79 -156 14 -240 40 -240 73 0 18 3 17 41 -16 18 -16 38 -27 43
-23 6 3 4 8 -4 10 -8 3 -21 13 -28 24 -7 10 -18 18 -23 18 -5 0 -19 9 -31 20
-30 27 -46 25 -22 -2 10 -13 3 -8 -17 10 -19 18 -39 29 -44 25 -5 -5 -3 0 4 9
11 15 8 22 -18 50 -18 18 -29 25 -25 16 4 -11 1 -18 -6 -18 -6 0 -8 -5 -4 -12
4 -6 3 -8 -4 -5 -5 4 -9 18 -8 32 2 13 0 23 -4 22 -14 -4 -152 107 -187 150
-20 24 -40 43 -46 43 -7 0 -7 -4 1 -12 7 -7 12 -20 12 -31 0 -10 4 -16 9 -12
5 3 12 -4 16 -15 3 -11 10 -20 14 -20 14 0 81 -57 74 -64 -3 -3 -1 -6 6 -6 6
0 43 -28 81 -62 37 -35 91 -82 119 -106 35 -30 48 -48 45 -60 -4 -12 -3 -13 3
-4 7 9 14 8 30 -7 11 -11 24 -17 29 -13 4 4 4 2 1 -4 -7 -13 46 -67 69 -70 9
-2 31 -18 50 -36 47 -47 73 -68 83 -68 6 0 13 -4 16 -10 4 -6 -1 -7 -12 -3
-10 3 -15 3 -11 -1 3 -4 13 -9 22 -10 8 -1 23 -9 33 -17 39 -33 113 -68 218
-103 178 -59 243 -68 433 -64 155 3 170 5 207 27 22 13 46 31 53 39 9 12 12
13 12 2 0 -7 -21 -33 -46 -56 -47 -44 -172 -104 -218 -104 -32 0 -128 -20
-141 -30 -19 -13 -45 -19 -45 -10 0 5 8 11 18 13 9 2 -1 2 -23 -2 -67 -9 -386
0 -379 11 3 4 -16 5 -41 3 -29 -3 -44 -1 -40 5 3 6 -4 10 -18 10 -25 0 -119
25 -152 40 -11 5 -47 19 -80 31 -33 12 -68 28 -77 36 -9 8 -22 12 -27 8 -6 -3
-11 -2 -11 3 0 5 -19 17 -42 26 -53 22 -55 23 -113 64 -25 18 -51 29 -57 26
-7 -4 -8 -2 -4 4 4 7 1 12 -8 12 -9 0 -15 5 -14 11 2 6 -3 14 -11 17 -9 3 -11
0 -6 -9 4 -8 -31 25 -77 73 -47 48 -91 101 -98 118 -7 16 -17 30 -22 30 -5 0
-6 5 -3 10 3 6 3 10 -2 10 -12 0 -33 51 -26 63 4 6 1 7 -7 2 -10 -6 -12 -4 -7
8 3 8 0 20 -7 27 -13 10 -44 119 -43 150 0 8 -5 40 -10 70 -16 83 -12 112 12
107 30 -7 89 -31 95 -38 3 -4 20 -10 38 -14 17 -3 32 -10 32 -15 0 -12 29 -20
35 -10 9 14 -47 60 -75 61 -24 2 -24 2 -2 6 13 3 34 -3 48 -11 14 -10 24 -12
24 -6 0 25 384 -18 435 -49 6 -3 22 -6 36 -7 37 -2 151 -59 188 -93 17 -16 31
-26 31 -23 -1 13 -26 37 -52 51 -16 8 -28 18 -28 23 0 5 -21 18 -47 29 -107
45 -143 70 -143 101 0 13 6 16 28 13 15 -2 54 -7 86 -11z m-1094 -227 c0 -2
-12 -14 -27 -28 l-28 -24 24 28 c23 25 31 32 31 24z m-188 -210 c-20 -22 -28
-7 -12 24 10 17 14 19 21 8 5 -9 2 -20 -9 -32z m1485 -73 c-3 -3 -12 -4 -19
-1 -8 3 -5 6 6 6 11 1 17 -2 13 -5z m-1707 -155 c0 -5 -4 -9 -9 -9 -4 0 -6
-10 -4 -23 3 -13 -5 -40 -16 -61 -15 -26 -21 -53 -20 -89 1 -34 -9 -85 -29
-147 -17 -52 -38 -124 -46 -159 -8 -36 -22 -68 -30 -73 -8 -5 -22 -16 -31 -24
-12 -13 -19 -14 -30 -4 -12 10 -15 9 -15 -8 0 -30 28 -35 61 -11 l30 21 -6
-24 c-3 -13 -7 -31 -8 -39 -5 -30 -46 -72 -64 -65 -12 5 -13 10 -5 18 8 8 2
29 -24 78 -34 66 -45 118 -22 104 6 -4 4 3 -5 16 -18 26 -14 57 12 101 47 79
154 231 166 235 20 8 36 61 26 87 -9 23 5 77 22 88 12 8 47 -1 47 -12z m-145
1 c3 -5 2 -10 -4 -10 -5 0 -13 5 -16 10 -3 6 -2 10 4 10 5 0 13 -4 16 -10z
m1348 -170 c-3 -12 -8 -19 -11 -16 -5 6 5 36 12 36 2 0 2 -9 -1 -20z m524
-233 c-11 -4 -25 -3 -32 3 -8 6 -38 12 -69 13 -39 1 -56 6 -56 15 0 10 15 13
59 10 33 -1 57 0 54 5 -2 4 3 7 11 7 9 0 16 6 16 12 0 7 8 -3 19 -22 18 -35
18 -35 -2 -43z m-152 3 c3 -5 -1 -10 -9 -10 -9 0 -16 5 -16 10 0 6 4 10 9 10
6 0 13 -4 16 -10z m-1668 -42 c-3 -8 -6 -5 -6 6 -1 11 2 17 5 13 3 -3 4 -12 1
-19z m1740 -494 c-3 -3 -12 -4 -19 -1 -8 3 -5 6 6 6 11 1 17 -2 13 -5z m-1550
-46 c-3 -8 -6 -5 -6 6 -1 11 2 17 5 13 3 -3 4 -12 1 -19z m-5 -60 c-8 -8 -9
-4 -5 13 4 13 8 18 11 10 2 -7 -1 -18 -6 -23z m-195 -150 c-3 -8 -6 -5 -6 6
-1 11 2 17 5 13 3 -3 4 -12 1 -19z m10 -75 c-3 -10 -5 -4 -5 12 0 17 2 24 5
18 2 -7 2 -21 0 -30z m140 -115 c-3 -8 -6 -5 -6 6 -1 11 2 17 5 13 3 -3 4 -12
1 -19z"/>
<path d="M2217 2353 c-23 -26 -31 -69 -18 -104 10 -30 10 -31 -6 -17 -30 27
-193 68 -193 49 0 -4 6 -8 13 -8 25 -1 143 -35 162 -47 39 -24 54 -26 50 -7
-2 11 -9 28 -16 39 -17 27 -2 73 29 87 12 5 22 13 22 17 0 14 -27 8 -43 -9z"/>
<path d="M1701 2242 c-1 -8 -6 -10 -13 -6 -8 5 -7 1 2 -10 15 -19 26 -7 17 17
-4 9 -6 9 -6 -1z"/>
<path d="M1921 2226 c-1 -25 -3 -27 -18 -16 -10 7 3 -8 29 -34 42 -41 52 -46
95 -48 26 -1 64 -3 83 -4 19 0 43 2 53 5 10 4 -17 8 -60 9 -43 1 -89 4 -103 7
-33 6 -60 36 -70 76 -8 33 -8 33 -9 5z"/>
<path d="M2252 2196 c7 -8 15 -12 17 -10 2 2 15 -2 30 -9 16 -8 44 -10 76 -6
l50 6 -46 1 c-26 1 -66 9 -89 17 -52 18 -54 18 -38 1z"/>
<path d="M2200 2181 c0 -5 7 -15 17 -22 15 -13 15 -12 4 9 -12 23 -21 28 -21
13z"/>
<path d="M2290 2124 c0 -8 4 -13 9 -10 5 3 20 -3 34 -14 38 -30 45 -24 12 10
-31 33 -55 39 -55 14z"/>
<path d="M1747 2093 c-9 -3 -14 -9 -11 -15 5 -7 2 -8 -5 -3 -16 10 -61 -14
-61 -32 0 -10 7 -12 21 -8 11 4 40 10 64 13 43 7 44 7 27 28 -9 11 -25 19 -35
17z"/>
<path d="M1805 2030 c-3 -5 1 -13 10 -16 22 -9 29 1 11 15 -10 8 -16 9 -21 1z"/>
<path d="M1520 1890 c0 -6 6 -10 13 -8 16 4 77 -22 77 -33 0 -10 80 -53 86
-46 2 2 -12 12 -32 23 -20 10 -50 31 -66 47 -30 26 -78 37 -78 17z"/>
<path d="M1918 1813 c6 -2 18 -2 25 0 6 3 1 5 -13 5 -14 0 -19 -2 -12 -5z"/>
<path d="M215 1567 c-52 -32 -80 -91 -72 -154 4 -34 3 -41 -3 -25 -15 35 -19
26 -7 -14 9 -28 12 -32 17 -18 5 12 9 14 14 6 8 -13 56 -17 57 -4 1 14 8 38
23 77 20 52 20 79 0 96 -8 7 -13 21 -11 31 3 10 4 18 4 17 -1 0 -11 -6 -22
-12z m19 -92 c-3 -22 -15 -57 -26 -78 -16 -32 -22 -36 -34 -27 -8 7 -14 21
-14 32 0 31 32 132 44 140 20 14 37 -24 30 -67z"/>
<path d="M110 1355 c0 -5 5 -17 10 -25 5 -8 10 -10 10 -5 0 6 -5 17 -10 25 -5
8 -10 11 -10 5z"/>
<path d="M2407 2953 c-23 -49 -46 -75 -59 -67 -5 3 -8 -9 -8 -26 0 -20 -4 -29
-11 -25 -6 4 -9 1 -8 -6 1 -8 -1 -21 -4 -29 -3 -8 -16 -46 -28 -85 -12 -38
-31 -90 -41 -114 -17 -40 -17 -46 -3 -53 8 -5 13 -13 10 -19 -9 -14 5 -11 21
6 9 8 21 15 27 15 16 -1 -54 -59 -70 -60 -7 0 -13 -7 -13 -15 0 -25 22 -17 68
23 54 47 54 62 0 62 -40 0 -41 0 -23 20 11 12 13 20 6 20 -7 0 -9 5 -6 10 4 6
11 8 16 4 5 -3 8 -2 7 3 -1 4 6 22 15 40 9 18 17 41 17 53 0 12 3 19 8 17 7
-5 11 20 12 73 0 23 1 23 11 6 8 -13 8 -25 0 -43 -6 -13 -7 -22 -2 -18 5 3 15
22 22 43 6 20 16 43 21 49 6 7 8 20 4 28 -3 8 -1 15 5 15 6 0 8 4 5 9 -4 5 -3
11 1 13 9 4 43 74 43 88 0 25 -22 5 -43 -37z m-24 -110 c-3 -7 -9 -13 -14 -13
-4 0 -6 -8 -3 -17 5 -17 5 -17 -6 0 -9 13 -8 25 2 47 10 25 14 27 19 12 3 -9
4 -23 2 -29z"/>
<path d="M2376 2637 c3 -10 9 -15 12 -12 3 3 0 11 -7 18 -10 9 -11 8 -5 -6z"/>
<path d="M2 2620 c0 -14 2 -19 5 -12 2 6 2 18 0 25 -3 6 -5 1 -5 -13z"/>
<path d="M60 2626 c0 -7 12 -25 28 -39 43 -43 62 -66 62 -78 0 -11 99 -131
113 -137 4 -2 7 -10 7 -17 0 -7 7 -15 15 -19 8 -3 15 -12 15 -21 0 -8 3 -15 8
-15 4 0 14 -15 21 -32 8 -18 28 -45 45 -60 23 -21 26 -28 13 -28 -9 0 -17 -4
-17 -10 0 -5 -8 -10 -17 -10 -29 0 -50 -17 -37 -30 8 -8 16 -7 27 4 9 9 25 16
37 16 12 0 28 7 36 15 13 12 11 18 -13 42 -16 15 -35 42 -43 58 -8 17 -25 39
-37 50 -13 11 -23 26 -23 33 0 7 -4 12 -10 12 -5 0 -10 6 -10 13 0 7 -9 19
-20 27 -11 8 -20 20 -20 27 0 7 -4 13 -9 13 -5 0 -12 8 -15 18 -4 10 -19 32
-35 48 -17 17 -33 43 -37 58 -4 15 -10 23 -13 17 -4 -5 -15 3 -26 19 -22 33
-45 46 -45 26z"/>
<path d="M2402 2580 c0 -14 2 -19 5 -12 2 6 2 18 0 25 -3 6 -5 1 -5 -13z"/>
<path d="M2419 2552 c-3 -20 -2 -29 4 -23 5 5 7 19 5 32 -3 20 -5 19 -9 -9z"/>
<path d="M2417 2495 c-4 -8 -3 -16 1 -19 4 -3 9 4 9 15 2 23 -3 25 -10 4z"/>
<path d="M1060 2470 c-9 -16 -8 -18 5 -14 8 4 15 12 15 20 0 20 -7 17 -20 -6z"/>
<path d="M964 2364 c-44 -42 -61 -62 -39 -45 63 48 129 110 123 116 -3 3 -41
-29 -84 -71z"/>
<path d="M2341 2435 c-1 -15 17 -40 28 -40 5 0 19 -12 31 -27 12 -16 26 -28
31 -28 6 0 -5 18 -23 40 -18 22 -38 40 -45 40 -6 0 -14 6 -16 13 -3 6 -6 8 -6
2z"/>
<path d="M2444 2357 c4 -38 12 -55 21 -45 3 2 -2 22 -10 44 l-15 39 4 -38z"/>
<path d="M1090 2366 c0 -8 -3 -16 -7 -18 -12 -5 -45 -106 -39 -117 3 -5 2 -11
-4 -13 -14 -4 -20 -38 -28 -158 -4 -72 -8 -96 -13 -75 -5 21 -7 9 -8 -41 -1
-57 2 -71 14 -71 8 0 15 6 15 13 0 7 4 14 10 16 5 2 11 62 14 133 4 134 10
187 22 206 4 6 10 25 14 43 5 17 13 46 18 64 7 19 7 32 1 32 -5 0 -9 -6 -9
-14z m-83 -453 c-3 -10 -5 -4 -5 12 0 17 2 24 5 18 2 -7 2 -21 0 -30z"/>
<path d="M208 2313 c7 -3 16 -2 19 1 4 3 -2 6 -13 5 -11 0 -14 -3 -6 -6z"/>
<path d="M250 2290 c8 -5 24 -9 35 -9 20 0 20 0 0 9 -11 5 -27 9 -35 9 -13 1
-13 0 0 -9z"/>
<path d="M975 2291 c-9 -15 15 -25 28 -12 9 9 7 10 -7 5 -13 -5 -17 -4 -12 4
4 7 5 12 2 12 -3 0 -7 -4 -11 -9z"/>
<path d="M150 2264 c0 -8 5 -12 10 -9 6 4 8 11 5 16 -9 14 -15 11 -15 -7z"/>
<path d="M150 2225 c0 -8 2 -15 4 -15 2 0 6 7 10 15 3 8 1 15 -4 15 -6 0 -10
-7 -10 -15z"/>
<path d="M142 2170 c0 -14 2 -19 5 -12 2 6 2 18 0 25 -3 6 -5 1 -5 -13z"/>
<path d="M358 2118 c-4 -12 81 -58 108 -58 26 0 14 30 -13 35 -16 4 -40 13
-55 21 -32 17 -35 17 -40 2z"/>
<path d="M166 2085 c4 -8 8 -15 10 -15 2 0 4 7 4 15 0 8 -4 15 -10 15 -5 0 -7
-7 -4 -15z"/>
<path d="M619 2067 c-33 -26 -192 -277 -175 -277 2 0 24 35 49 78 60 104 136
204 149 196 7 -4 8 -2 4 4 -9 14 -7 14 -27 -1z"/>
<path d="M1094 2053 c-17 -16 -23 -23 -15 -17 9 6 30 19 46 27 17 9 23 16 15
17 -9 0 -29 -12 -46 -27z"/>
<path d="M1174 2069 c15 -9 16 -13 5 -20 -10 -6 -8 -9 9 -9 15 0 21 -4 16 -12
-4 -7 -3 -8 5 -4 6 4 19 2 28 -6 15 -12 15 -11 2 10 -8 12 -19 22 -25 22 -6 0
-17 7 -24 15 -7 8 -18 15 -24 15 -6 0 -3 -5 8 -11z"/>
<path d="M421 2052 c0 -7 -5 -10 -11 -7 -5 3 -10 -3 -10 -14 0 -16 6 -21 24
-21 13 0 26 -6 29 -12 4 -10 7 -10 17 -1 11 10 8 14 -13 22 -14 5 -27 18 -30
28 -3 10 -5 12 -6 5z"/>
<path d="M692 2048 c5 -15 28 -23 28 -10 0 5 -7 13 -16 16 -10 4 -14 1 -12 -6z"/>
<path d="M827 2017 c-14 -50 16 -64 49 -24 10 12 12 16 4 10 -23 -21 -38 -15
-42 15 l-3 27 -8 -28z"/>
<path d="M230 1998 c0 -9 7 -23 15 -31 8 -8 12 -17 9 -19 -2 -3 2 -11 11 -18
13 -11 14 -10 8 6 -14 38 -43 79 -43 62z"/>
<path d="M1257 1979 c4 -13 8 -18 11 -10 2 7 -1 18 -6 23 -8 8 -9 4 -5 -13z"/>
<path d="M677 1948 c-9 -31 -2 -33 11 -3 6 14 8 25 3 25 -5 0 -11 -10 -14 -22z"/>
<path d="M867 1941 c-20 -10 -48 -21 -62 -23 -20 -4 -23 -3 -14 8 8 9 8 14 1
14 -6 0 -13 -9 -17 -19 -3 -11 -14 -23 -25 -26 -23 -7 -53 -52 -41 -60 6 -3
13 1 18 8 10 16 74 47 97 47 9 0 16 4 16 9 0 5 15 13 33 17 17 4 35 9 40 10 4
1 20 2 35 3 18 1 29 6 29 16 0 22 -64 19 -110 -4z"/>
<path d="M1253 1930 c-3 -11 -9 -17 -14 -14 -5 3 -9 -1 -9 -9 0 -7 -9 -23 -20
-35 -11 -12 -20 -26 -20 -32 0 -16 58 53 69 83 6 15 8 27 5 27 -3 0 -8 -9 -11
-20z"/>
<path d="M630 1873 c0 -5 -29 -38 -64 -75 -35 -38 -60 -68 -55 -68 10 0 41 31
97 98 24 29 38 52 33 52 -6 0 -11 -3 -11 -7z"/>
<path d="M1060 1874 c0 -13 69 -44 95 -43 l30 1 -31 7 c-17 4 -45 15 -62 24
-18 8 -32 13 -32 11z"/>
<path d="M916 1732 c-38 -64 -75 -127 -83 -140 -8 -13 -19 -20 -25 -16 -7 5
-9 2 -6 -7 6 -16 -85 -152 -96 -142 -3 3 -6 0 -6 -8 0 -8 -14 -34 -30 -59 -17
-25 -37 -60 -45 -77 -8 -18 -17 -33 -20 -33 -3 0 -3 5 1 12 4 7 3 8 -4 4 -7
-4 -12 -12 -12 -18 0 -6 -13 -38 -30 -72 -32 -66 -52 -154 -32 -142 7 4 12 0
13 -11 0 -10 1 -32 2 -50 1 -17 -1 -29 -5 -26 -13 7 -9 -10 18 -88 18 -54 26
-97 27 -161 1 -48 5 -88 10 -88 4 0 7 -7 7 -15 0 -9 12 -34 26 -57 31 -48 58
-151 49 -188 -4 -20 -3 -22 5 -10 9 12 10 6 6 -25 -4 -31 -3 -35 4 -20 8 15 9
6 5 -35 -3 -40 -2 -50 5 -35 8 15 9 7 6 -30 -4 -35 -2 -42 3 -25 7 19 9 8 9
-40 1 -73 12 -122 30 -128 9 -3 10 17 6 75 -7 92 -42 315 -55 350 -5 13 -9 34
-9 46 l0 21 15 -21 c13 -19 80 -53 115 -58 8 -2 47 -16 87 -33 40 -17 106 -36
148 -43 55 -10 75 -17 76 -28 0 -11 2 -12 6 -3 5 13 33 17 33 4 0 -9 22 -11
137 -13 40 -1 70 -5 67 -10 -3 -5 -12 -9 -19 -9 -8 0 -34 -11 -57 -25 -24 -14
-51 -28 -61 -32 -9 -3 -17 -9 -17 -14 0 -5 -17 -17 -37 -28 -21 -11 -34 -20
-30 -21 5 0 -1 -12 -12 -26 -12 -15 -21 -34 -21 -43 -1 -9 -7 -33 -14 -53 -13
-35 -12 -38 5 -38 11 0 19 7 19 15 0 8 9 24 21 36 15 15 19 28 15 45 -4 13 -3
23 1 22 5 -2 10 2 12 7 4 11 33 34 42 35 4 0 0 -19 -8 -43 -26 -71 -32 -117
-17 -117 8 0 14 6 14 13 0 8 4 7 11 -3 9 -13 10 -12 5 3 -6 19 5 84 26 150 8
26 21 43 42 54 17 9 33 19 36 22 9 11 89 51 102 51 18 -1 58 -126 44 -140 -7
-7 -6 -21 2 -43 7 -18 12 -40 12 -49 0 -34 37 -51 109 -50 38 0 78 5 89 11 17
9 39 70 33 94 -3 17 20 87 30 87 6 0 8 4 4 9 -7 13 25 91 38 91 18 0 182 -74
199 -90 12 -11 14 -20 8 -30 -21 -32 -8 -180 15 -180 9 0 11 22 7 90 -3 56 -1
90 5 90 13 0 61 -96 78 -157 4 -13 13 -23 21 -23 17 0 11 34 -16 92 -11 22
-14 41 -9 50 5 7 9 20 9 28 0 12 -2 12 -9 2 -7 -11 -13 -9 -29 8 -13 14 -25
19 -34 14 -11 -6 -11 -5 0 8 11 13 7 18 -25 32 -21 8 -60 27 -88 42 -27 14
-58 30 -67 35 -9 5 -32 6 -49 2 -49 -9 -28 12 26 27 25 7 45 16 45 20 0 4 11
11 24 14 33 8 230 115 286 155 25 17 60 42 77 54 18 12 33 30 33 40 0 10 4 16
9 12 5 -3 12 3 14 12 4 14 5 12 6 -5 0 -12 -6 -33 -15 -46 -10 -16 -11 -26 -5
-31 7 -4 10 -64 9 -163 0 -94 -4 -147 -9 -132 -5 16 -6 6 -3 -30 3 -42 2 -50
-6 -35 -8 16 -9 13 -5 -15 3 -19 0 -51 -6 -70 -22 -69 -27 -120 -12 -120 7 0
13 1 13 3 0 1 14 78 32 172 31 170 31 171 34 555 2 218 -1 374 -6 360 -8 -25
-8 -25 -9 -2 -1 13 6 30 14 38 16 17 22 104 16 257 l-3 87 30 -27 c64 -60 80
-73 95 -73 21 0 31 -17 15 -23 -12 -5 26 -11 45 -8 4 1 20 -11 34 -25 16 -16
29 -22 31 -16 5 15 32 16 32 2 0 -5 7 -10 15 -10 8 0 15 -4 15 -10 0 -17 -28
-11 -39 8 -10 16 -10 16 -11 0 0 -10 8 -22 19 -27 12 -7 21 -27 25 -58 30
-206 42 -474 27 -570 -13 -85 -42 -183 -53 -183 -4 0 -8 -14 -8 -30 0 -63
-105 -229 -218 -347 -58 -61 -66 -73 -48 -73 28 0 147 122 191 195 66 108 134
262 151 340 17 81 35 443 22 448 -3 1 -9 56 -11 122 -6 142 -5 134 -17 115 -8
-12 -10 -9 -10 14 0 22 4 27 16 22 9 -3 32 -6 52 -6 35 0 39 -4 77 -67 22 -36
48 -78 57 -92 10 -14 22 -36 27 -48 19 -42 73 -119 66 -93 -4 14 -6 36 -6 50
1 13 -11 40 -27 60 -46 58 -63 90 -56 102 4 6 3 9 -2 6 -5 -3 -22 10 -37 28
-16 19 -24 34 -18 34 5 0 15 -8 21 -17 9 -15 10 -14 4 6 -6 22 -4 23 20 17 14
-3 44 -3 66 0 31 5 40 11 40 27 0 18 -5 19 -47 14 -27 -3 -84 -1 -128 4 -44 6
-89 10 -100 10 -11 0 -27 7 -36 15 -9 8 -26 16 -38 17 -12 1 -19 7 -17 13 3 7
-3 10 -15 7 -10 -3 -19 -1 -19 4 0 6 -27 21 -61 34 -33 13 -80 41 -102 63 -23
21 -52 38 -65 38 -12 0 -25 4 -28 9 -3 5 2 6 11 3 26 -11 7 22 -22 35 -31 14
-39 9 -18 -12 17 -17 20 -32 5 -22 -5 3 -10 -1 -10 -9 0 -9 4 -16 9 -16 4 0
12 -33 16 -72 11 -93 12 -227 3 -221 -5 2 -8 12 -9 21 0 9 -5 4 -9 -12 -6 -17
-5 -47 0 -70 5 -23 6 -44 2 -48 -4 -4 -3 -84 2 -179 10 -186 6 -211 -42 -235
-12 -6 -46 -33 -75 -60 -64 -58 -119 -100 -125 -96 -3 2 -8 0 -11 -5 -10 -14
-212 -110 -261 -124 -49 -14 -66 -29 -47 -41 9 -6 9 -8 0 -8 -7 0 -13 -8 -13
-17 0 -10 -11 -40 -23 -66 -20 -41 -26 -46 -36 -33 -17 20 -77 39 -104 32 -12
-3 -31 -14 -42 -24 -23 -21 -59 -37 -50 -22 8 12 -15 90 -27 90 -4 0 -8 5 -8
10 0 6 31 10 73 10 39 0 98 6 129 14 32 7 60 11 63 8 3 -3 5 3 5 12 0 13 -5
16 -17 12 -48 -19 -117 -26 -226 -25 -164 1 -187 3 -187 13 0 4 -7 5 -16 2
-17 -7 -194 27 -264 51 -25 8 -70 19 -100 24 -30 5 -56 13 -58 19 -2 6 -8 7
-14 4 -5 -3 -16 2 -24 12 -9 11 -12 12 -8 4 7 -13 6 -13 -10 0 -10 8 -27 15
-38 17 -11 2 -31 12 -45 23 -14 11 -29 17 -34 14 -5 -3 -9 1 -9 9 0 8 -12 22
-26 32 -26 17 -26 19 -22 111 2 51 0 95 -4 96 -5 2 -10 14 -12 28 -2 14 -13
56 -24 93 -35 109 -26 209 24 285 10 15 17 35 16 45 -2 9 1 17 7 17 5 0 16 6
23 13 14 13 57 34 72 35 5 0 14 8 19 17 7 14 11 15 18 4 5 -8 3 -16 -4 -21
-15 -9 -37 -118 -24 -118 6 0 7 -18 4 -43 -13 -91 45 -196 136 -246 41 -23
147 -37 147 -20 0 6 3 8 8 6 27 -16 115 78 128 138 9 41 17 135 11 135 -3 0
-17 -6 -32 -14 -19 -10 -36 -12 -58 -5 -18 5 -33 9 -34 9 -2 0 -3 9 -3 20 0
26 36 48 83 52 20 1 37 7 37 13 0 25 -33 122 -52 153 l-20 32 29 -1 c17 -1 21
-3 11 -6 -22 -5 -24 -23 -4 -23 23 0 29 20 15 47 -10 18 -19 23 -36 18 -18 -4
-21 -2 -16 11 5 14 2 16 -23 10 -16 -4 -63 -10 -104 -12 -111 -7 -196 -29
-228 -60 l-27 -26 35 7 c19 4 48 14 63 22 18 9 40 11 64 7 26 -5 34 -4 29 5
-5 8 2 11 21 11 15 0 48 2 73 5 60 7 90 -1 90 -25 0 -10 5 -22 10 -25 6 -3 10
-11 10 -18 0 -6 -11 1 -25 16 -14 15 -34 27 -43 28 -9 0 -24 2 -34 4 -9 1 -43
-3 -77 -10 -44 -9 -61 -9 -64 -1 -3 7 -9 7 -18 -3 -9 -9 -9 -11 -1 -7 6 4 12
3 12 -2 0 -6 -11 -13 -25 -16 -14 -4 -25 -13 -25 -22 0 -8 -4 -12 -10 -9 -5 3
-10 1 -10 -6 0 -8 -5 -6 -12 4 -11 14 -18 15 -50 5 -21 -6 -34 -16 -31 -21 3
-6 2 -7 -4 -4 -6 4 -19 0 -29 -8 -26 -19 -39 -19 -20 1 9 8 16 20 16 25 0 5 7
17 15 26 7 10 41 50 73 89 32 39 74 98 92 130 18 32 48 80 66 105 31 45 114
186 114 195 0 2 -8 4 -17 4 -12 0 -41 -40 -87 -118z m144 -401 c34 -24 70 -79
70 -106 0 -18 -7 -24 -34 -29 -72 -14 -88 -78 -26 -107 19 -9 40 -14 47 -12 7
3 13 -2 13 -12 0 -9 5 -13 10 -10 14 8 12 -2 -6 -55 -30 -87 -37 -98 -84 -119
-26 -12 -55 -21 -66 -21 -41 0 -96 22 -131 53 -36 32 -68 90 -58 107 3 5 1 11
-5 15 -6 3 -10 48 -10 101 0 69 3 93 12 88 7 -4 8 -3 4 5 -5 7 -5 23 -2 36 5
19 20 28 76 46 38 12 78 28 87 35 22 15 69 8 103 -15z m-156 4 c-17 -8 -44
-17 -60 -20 -24 -5 -22 -3 11 14 22 10 49 19 60 19 15 0 12 -3 -11 -13z m1798
-167 c-2 -15 -5 -28 -7 -28 -2 0 -5 13 -7 28 -2 17 1 29 7 29 6 0 9 -12 7 -29z
m15 -110 c-2 -13 -4 -3 -4 22 0 25 2 35 4 23 2 -13 2 -33 0 -45z m0 -105 c-3
-10 -5 -4 -5 12 0 17 2 24 5 18 2 -7 2 -21 0 -30z m-2000 -675 c-3 -8 -6 -5
-6 6 -1 11 2 17 5 13 3 -3 4 -12 1 -19z m10 -60 c-3 -8 -6 -5 -6 6 -1 11 2 17
5 13 3 -3 4 -12 1 -19z m933 -23 c7 -8 19 -15 27 -15 10 0 13 -6 10 -17 -13
-42 -33 -88 -41 -94 -4 -4 -3 -16 3 -28 10 -17 9 -21 -3 -21 -8 0 -18 5 -21
10 -9 15 -85 13 -86 -2 -1 -22 -26 45 -34 90 -4 27 -3 42 4 42 5 0 21 11 35
25 29 29 86 34 106 10z m-430 -15 c-24 -15 -36 -11 -14 4 10 8 21 12 24 10 2
-3 -2 -9 -10 -14z m-493 -22 c-3 -7 -5 -2 -5 12 0 14 2 19 5 13 2 -7 2 -19 0
-25z"/>
<path d="M1546 154 c-11 -8 -16 -14 -10 -14 13 0 39 18 34 24 -3 2 -14 -2 -24
-10z"/>
<path d="M1621 166 c2 -2 15 -9 29 -15 24 -11 24 -11 6 3 -16 13 -49 24 -35
12z"/>
<path d="M1580 131 c0 -5 -9 -13 -20 -16 -11 -3 -20 -11 -20 -16 0 -5 14 -2
32 7 25 13 36 14 50 5 11 -7 18 -7 18 -1 0 10 -32 30 -49 30 -6 0 -11 -4 -11
-9z"/>
<path d="M1051 1825 c0 -16 6 -39 14 -49 19 -25 19 -12 0 39 -14 38 -14 39
-14 10z"/>
<path d="M405 1699 c-4 -6 -5 -12 -2 -15 2 -3 7 2 10 11 7 17 1 20 -8 4z"/>
<path d="M1809 1626 c-2 -3 -24 -7 -48 -10 -24 -2 -48 -9 -53 -14 -13 -13 -2
-32 15 -27 7 2 38 9 70 15 37 8 57 16 57 26 0 13 -31 20 -41 10z"/>
<path d="M2678 1553 c7 -3 16 -2 19 1 4 3 -2 6 -13 5 -11 0 -14 -3 -6 -6z"/>
<path d="M2638 1543 c7 -3 16 -2 19 1 4 3 -2 6 -13 5 -11 0 -14 -3 -6 -6z"/>
<path d="M935 1486 c-51 -11 -73 -36 -32 -36 38 1 112 24 115 38 2 14 -13 14
-83 -2z"/>
<path d="M1760 1485 c0 -16 16 -20 24 -6 3 5 -1 11 -9 15 -9 3 -15 0 -15 -9z"/>
<path d="M2230 1443 c0 -5 7 -18 15 -29 13 -18 14 -18 8 4 -5 22 -23 41 -23
25z"/>
<path d="M1230 1386 c0 -3 9 -10 20 -16 11 -6 20 -8 20 -6 0 3 -9 10 -20 16
-11 6 -20 8 -20 6z"/>
<path d="M441 1304 c0 -11 3 -14 6 -6 3 7 2 16 -1 19 -3 4 -6 -2 -5 -13z"/>
<path d="M2231 1264 c0 -11 3 -14 6 -6 3 7 2 16 -1 19 -3 4 -6 -2 -5 -13z"/>
<path d="M1693 1248 c-20 -26 -26 -41 -15 -34 12 7 36 46 29 46 -3 0 -9 -6
-14 -12z"/>
<path d="M2758 1233 c7 -3 16 -2 19 1 4 3 -2 6 -13 5 -11 0 -14 -3 -6 -6z"/>
<path d="M2230 1220 c1 -8 7 -24 15 -34 19 -25 19 -16 0 20 -8 16 -15 22 -15
14z"/>
<path d="M2890 1189 c0 -5 5 -7 10 -4 6 3 10 8 10 11 0 2 -4 4 -10 4 -5 0 -10
-5 -10 -11z"/>
<path d="M1470 1040 c0 -5 5 -10 10 -10 6 0 10 5 10 10 0 6 -4 10 -10 10 -5 0
-10 -4 -10 -10z"/>
<path d="M492 980 c0 -14 2 -19 5 -12 2 6 2 18 0 25 -3 6 -5 1 -5 -13z"/>
<path d="M1580 883 c-110 -11 -193 -35 -240 -69 -26 -19 -50 -40 -53 -47 -9
-25 23 -92 60 -127 45 -42 155 -77 200 -64 25 7 22 8 -27 15 -77 9 -141 40
-178 85 -40 49 -43 96 -8 120 57 37 313 74 384 55 38 -11 41 -14 44 -49 2 -20
0 -44 -3 -52 -19 -48 -47 -89 -78 -117 -24 -22 -29 -31 -16 -26 11 3 25 10 31
14 6 5 14 6 17 2 4 -3 7 4 7 16 0 12 4 20 9 16 5 -3 12 4 16 15 3 11 13 27 21
35 8 8 18 37 21 64 12 100 -45 131 -207 114z"/>
<path d="M2555 669 c-24 -21 -146 -99 -155 -99 -6 0 -9 -12 -9 -27 1 -22 3
-23 6 -7 2 12 15 26 28 32 13 6 43 26 68 44 24 18 53 38 63 44 10 7 17 14 14
17 -3 2 -9 1 -15 -4z"/>
<path d="M2389 618 c-3 -22 -1 -34 4 -29 5 5 7 21 5 37 -3 27 -4 26 -9 -8z"/>
<path d="M1593 603 c-21 -8 -15 -22 7 -16 11 3 20 9 20 14 0 10 -8 10 -27 2z"/>
<path d="M520 446 c0 -2 8 -10 18 -17 15 -13 16 -12 3 4 -13 16 -21 21 -21 13z"/>
<path d="M560 381 c0 -6 4 -13 10 -16 6 -3 7 1 4 9 -7 18 -14 21 -14 7z"/>
<path d="M590 310 c0 -5 5 -10 11 -10 5 0 7 5 4 10 -3 6 -8 10 -11 10 -2 0 -4
-4 -4 -10z"/>
<path d="M177 261 c-4 -17 -3 -21 5 -13 5 5 8 16 6 23 -3 8 -7 3 -11 -10z"/>
<path d="M1928 217 c-5 -10 -8 -27 -8 -38 0 -10 -5 -19 -12 -19 -6 0 -9 -3 -5
-6 3 -3 -4 -16 -16 -28 -13 -11 -18 -18 -13 -13 6 4 18 7 27 7 10 0 20 6 23
13 3 6 4 -1 1 -18 -4 -16 -6 -38 -6 -49 0 -15 -5 -17 -27 -12 -15 4 -47 9 -72
11 -36 4 -29 0 35 -18 l80 -23 3 53 c5 81 -2 162 -10 140z"/>
<path d="M1290 178 c0 -13 -4 -28 -10 -34 -5 -5 -13 -39 -16 -74 -7 -64 -7
-65 13 -48 20 19 125 57 156 58 9 0 17 4 17 9 0 11 -49 0 -123 -27 -56 -21
-57 -21 -57 -2 0 11 4 20 10 20 5 0 7 6 4 13 -2 7 2 32 10 55 9 25 11 44 5 47
-5 4 -9 -4 -9 -17z"/>
<path d="M114 145 c-10 -19 -22 -35 -26 -35 -5 0 -8 -5 -8 -12 0 -6 -12 -27
-26 -47 -22 -31 -22 -32 -2 -10 12 14 34 40 47 57 13 17 29 29 35 25 6 -3 8
-3 4 1 -4 5 -3 19 2 32 14 36 -4 29 -26 -11z"/>
<path d="M1412 153 c14 -17 25 -16 31 1 4 10 -2 13 -18 12 -17 -1 -21 -4 -13
-13z"/>
<path d="M1836 132 c-3 -5 1 -9 9 -9 8 0 12 4 9 9 -3 4 -7 8 -9 8 -2 0 -6 -4
-9 -8z"/>
<path d="M1973 60 c0 -36 2 -50 4 -32 2 17 2 47 0 65 -2 17 -4 3 -4 -33z"/>
<path d="M1815 100 c-13 -6 -15 -9 -5 -9 8 0 22 4 30 9 18 12 2 12 -25 0z"/>
<path d="M2051 46 c-1 -42 1 -47 14 -36 16 13 21 45 6 35 -5 -3 -12 7 -14 22
-2 17 -5 9 -6 -21z"/>
<path d="M1738 73 c6 -2 18 -2 25 0 6 3 1 5 -13 5 -14 0 -19 -2 -12 -5z"/>
<path d="M1162 25 c0 -17 2 -22 5 -12 2 9 2 23 0 30 -3 6 -5 -1 -5 -18z"/>
<path d="M1423 39 c11 -7 23 -7 35 0 14 9 11 10 -18 10 -29 0 -32 -1 -17 -10z"/>
<path d="M1335 16 c-28 -12 -25 -13 59 -15 82 -1 109 6 54 15 -13 3 -36 6 -53
9 -16 3 -43 -1 -60 -9z m62 -2 c-3 -3 -12 -4 -19 -1 -8 3 -5 6 6 6 11 1 17 -2
13 -5z"/>
<path d="M1795 19 c14 -6 3 -7 -32 -3 -35 4 -53 2 -53 -5 0 -7 30 -10 88 -10
48 1 74 4 57 6 -16 3 -34 9 -39 14 -6 5 -17 9 -25 8 -12 0 -10 -3 4 -10z"/>
</g>
</svg>
